<?xml version="1.0" encoding="UTF-8"?>
<!DOCTYPE svg PUBLIC "-//W3C//DTD SVG 1.1//EN" "http://www.w3.org/Graphics/SVG/1.1/DTD/svg11.dtd">
<svg xmlns="http://www.w3.org/2000/svg" version="1.1" width="1365px" height="1365px" style="shape-rendering:geometricPrecision; text-rendering:geometricPrecision; image-rendering:optimizeQuality; fill-rule:evenodd; clip-rule:evenodd" xmlns:xlink="http://www.w3.org/1999/xlink">
<g><path style="opacity:0.328" fill="#000100" d="M 679.5,226.5 C 695.834,226.247 708.334,232.913 717,246.5C 834.24,470.645 951.24,694.978 1068,919.5C 1074.76,933.371 1076.09,947.705 1072,962.5C 1066.99,973.503 1058.49,980.003 1046.5,982C 1038.54,983.057 1030.54,983.723 1022.5,984C 793.833,984.667 565.167,984.667 336.5,984C 323.748,984.543 311.748,981.877 300.5,976C 288.141,963.729 284.641,949.229 290,932.5C 291.333,928.5 292.667,924.5 294,920.5C 411.775,694.613 529.775,468.946 648,243.5C 656.03,233.215 666.53,227.549 679.5,226.5 Z"/></g>
<g><path style="opacity:1" fill="#f6f6f6" d="M 681.5,238.5 C 681.5,440.167 681.5,641.833 681.5,843.5C 673.5,845.5 665.5,847.5 657.5,849.5C 649.893,851.652 642.226,853.652 634.5,855.5C 624.209,858.323 613.875,860.989 603.5,863.5C 588.238,867.697 572.905,871.697 557.5,875.5C 540.833,879.833 524.167,884.167 507.5,888.5C 499.023,890.7 490.69,893.033 482.5,895.5C 466.126,899.343 449.793,903.343 433.5,907.5C 394.664,917.541 355.997,927.874 317.5,938.5C 316.508,938.672 315.842,938.338 315.5,937.5C 437.249,704.335 559.249,471.335 681.5,238.5 Z"/></g>
<g><path style="opacity:0.999" fill="#000a00" d="M 681.5,238.5 C 682.167,361.334 682.833,484.334 683.5,607.5C 733.412,581.294 783.246,554.961 833,528.5C 884.361,625.414 935.194,722.748 985.5,820.5C 942.658,843.421 899.658,866.088 856.5,888.5C 846.984,886.788 837.65,884.454 828.5,881.5C 819.356,879.631 810.356,877.297 801.5,874.5C 793.706,872.901 786.04,870.901 778.5,868.5C 763.069,864.809 747.736,860.809 732.5,856.5C 723.356,854.631 714.356,852.297 705.5,849.5C 697.4,847.808 689.4,845.808 681.5,843.5C 681.5,641.833 681.5,440.167 681.5,238.5 Z"/></g>
<g><path style="opacity:0.999" fill="#000d00" d="M 985.5,820.5 C 1006.38,859.249 1027.04,898.249 1047.5,937.5C 1047.04,938.298 1046.38,938.631 1045.5,938.5C 1028.77,933.548 1011.77,929.214 994.5,925.5C 979.43,920.898 964.097,916.898 948.5,913.5C 932.097,908.565 915.43,904.231 898.5,900.5C 890.583,898.184 882.583,895.851 874.5,893.5C 868.224,892.434 862.224,890.767 856.5,888.5C 899.658,866.088 942.658,843.421 985.5,820.5 Z"/></g>
<g><path style="opacity:1" fill="#737373" d="M 681.5,843.5 C 679.942,875.197 677.942,906.864 675.5,938.5C 667.833,938.5 660.167,938.5 652.5,938.5C 654.214,908.835 655.881,879.169 657.5,849.5C 665.5,847.5 673.5,845.5 681.5,843.5 Z"/></g>
<g><path style="opacity:1" fill="#6d6d6d" d="M 681.5,843.5 C 689.4,845.808 697.4,847.808 705.5,849.5C 703.058,879.124 701.058,908.79 699.5,938.5C 691.5,938.5 683.5,938.5 675.5,938.5C 677.942,906.864 679.942,875.197 681.5,843.5 Z"/></g>
<g><path style="opacity:1" fill="#797979" d="M 657.5,849.5 C 655.881,879.169 654.214,908.835 652.5,938.5C 644.5,938.5 636.5,938.5 628.5,938.5C 630.236,910.79 632.236,883.124 634.5,855.5C 642.226,853.652 649.893,851.652 657.5,849.5 Z"/></g>
<g><path style="opacity:1" fill="#666666" d="M 705.5,849.5 C 714.356,852.297 723.356,854.631 732.5,856.5C 730.368,883.815 728.368,911.148 726.5,938.5C 717.5,938.5 708.5,938.5 699.5,938.5C 701.058,908.79 703.058,879.124 705.5,849.5 Z"/></g>
<g><path style="opacity:1" fill="#808080" d="M 634.5,855.5 C 632.236,883.124 630.236,910.79 628.5,938.5C 619.5,938.5 610.5,938.5 601.5,938.5C 602.457,916.315 603.79,894.148 605.5,872C 605.389,868.895 604.722,866.062 603.5,863.5C 613.875,860.989 624.209,858.323 634.5,855.5 Z"/></g>
<g><path style="opacity:1" fill="#5e5e5e" d="M 732.5,856.5 C 747.736,860.809 763.069,864.809 778.5,868.5C 777.009,891.858 775.343,915.192 773.5,938.5C 757.833,938.5 742.167,938.5 726.5,938.5C 728.368,911.148 730.368,883.815 732.5,856.5 Z"/></g>
<g><path style="opacity:1" fill="#545454" d="M 778.5,868.5 C 786.04,870.901 793.706,872.901 801.5,874.5C 800.167,895.833 798.833,917.167 797.5,938.5C 789.5,938.5 781.5,938.5 773.5,938.5C 775.343,915.192 777.009,891.858 778.5,868.5 Z"/></g>
<g><path style="opacity:1" fill="#8a8a8a" d="M 603.5,863.5 C 604.722,866.062 605.389,868.895 605.5,872C 603.79,894.148 602.457,916.315 601.5,938.5C 585.5,938.5 569.5,938.5 553.5,938.5C 555.466,917.351 556.799,896.351 557.5,875.5C 572.905,871.697 588.238,867.697 603.5,863.5 Z"/></g>
<g><path style="opacity:1" fill="#4d4d4d" d="M 801.5,874.5 C 810.356,877.297 819.356,879.631 828.5,881.5C 827.497,900.536 826.164,919.536 824.5,938.5C 815.5,938.5 806.5,938.5 797.5,938.5C 798.833,917.167 800.167,895.833 801.5,874.5 Z"/></g>
<g><path style="opacity:1" fill="#969696" d="M 557.5,875.5 C 556.799,896.351 555.466,917.351 553.5,938.5C 536.5,938.5 519.5,938.5 502.5,938.5C 503.855,922.865 505.022,907.198 506,891.5C 506.513,890.473 507.013,889.473 507.5,888.5C 524.167,884.167 540.833,879.833 557.5,875.5 Z"/></g>
<g><path style="opacity:1" fill="#434343" d="M 828.5,881.5 C 837.65,884.454 846.984,886.788 856.5,888.5C 862.224,890.767 868.224,892.434 874.5,893.5C 874.072,908.592 873.072,923.592 871.5,938.5C 855.833,938.5 840.167,938.5 824.5,938.5C 826.164,919.536 827.497,900.536 828.5,881.5 Z"/></g>
<g><path style="opacity:1" fill="#9f9f9f" d="M 507.5,888.5 C 507.013,889.473 506.513,890.473 506,891.5C 505.022,907.198 503.855,922.865 502.5,938.5C 494.833,938.5 487.167,938.5 479.5,938.5C 480.103,924.114 481.103,909.781 482.5,895.5C 490.69,893.033 499.023,890.7 507.5,888.5 Z"/></g>
<g><path style="opacity:1" fill="#3b3b3b" d="M 874.5,893.5 C 882.583,895.851 890.583,898.184 898.5,900.5C 897.238,913.095 896.238,925.761 895.5,938.5C 887.5,938.5 879.5,938.5 871.5,938.5C 873.072,923.592 874.072,908.592 874.5,893.5 Z"/></g>
<g><path style="opacity:1" fill="#a7a7a7" d="M 482.5,895.5 C 481.103,909.781 480.103,924.114 479.5,938.5C 463.833,938.5 448.167,938.5 432.5,938.5C 432.637,928.773 433.304,919.107 434.5,909.5C 434.137,908.817 433.804,908.15 433.5,907.5C 449.793,903.343 466.126,899.343 482.5,895.5 Z"/></g>
<g><path style="opacity:1" fill="#333333" d="M 898.5,900.5 C 915.43,904.231 932.097,908.565 948.5,913.5C 947.692,921.816 947.025,930.15 946.5,938.5C 929.5,938.5 912.5,938.5 895.5,938.5C 896.238,925.761 897.238,913.095 898.5,900.5 Z"/></g>
<g><path style="opacity:1" fill="#262626" d="M 948.5,913.5 C 964.097,916.898 979.43,920.898 994.5,925.5C 994.414,929.857 994.08,934.19 993.5,938.5C 977.833,938.5 962.167,938.5 946.5,938.5C 947.025,930.15 947.692,921.816 948.5,913.5 Z"/></g>
<g><path style="opacity:0.999" fill="#b8b8b8" d="M 433.5,907.5 C 433.804,908.15 434.137,908.817 434.5,909.5C 433.304,919.107 432.637,928.773 432.5,938.5C 429.5,938.5 426.5,938.5 423.5,938.5C 388.167,938.5 352.833,938.5 317.5,938.5C 355.997,927.874 394.664,917.541 433.5,907.5 Z"/></g>
<g><path style="opacity:0.999" fill="#1e1e1e" d="M 994.5,925.5 C 1011.77,929.214 1028.77,933.548 1045.5,938.5C 838.17,939.464 630.837,939.797 423.5,939.5C 423.5,939.167 423.5,938.833 423.5,938.5C 426.5,938.5 429.5,938.5 432.5,938.5C 448.167,938.5 463.833,938.5 479.5,938.5C 487.167,938.5 494.833,938.5 502.5,938.5C 519.5,938.5 536.5,938.5 553.5,938.5C 569.5,938.5 585.5,938.5 601.5,938.5C 610.5,938.5 619.5,938.5 628.5,938.5C 636.5,938.5 644.5,938.5 652.5,938.5C 660.167,938.5 667.833,938.5 675.5,938.5C 683.5,938.5 691.5,938.5 699.5,938.5C 708.5,938.5 717.5,938.5 726.5,938.5C 742.167,938.5 757.833,938.5 773.5,938.5C 781.5,938.5 789.5,938.5 797.5,938.5C 806.5,938.5 815.5,938.5 824.5,938.5C 840.167,938.5 855.833,938.5 871.5,938.5C 879.5,938.5 887.5,938.5 895.5,938.5C 912.5,938.5 929.5,938.5 946.5,938.5C 962.167,938.5 977.833,938.5 993.5,938.5C 994.08,934.19 994.414,929.857 994.5,925.5 Z"/></g>
<g><path style="opacity:0.573" fill="#5a5a5a" d="M 315.5,937.5 C 315.842,938.338 316.508,938.672 317.5,938.5C 352.833,938.5 388.167,938.5 423.5,938.5C 423.5,938.833 423.5,939.167 423.5,939.5C 387.161,939.833 350.827,939.5 314.5,938.5C 314.624,937.893 314.957,937.56 315.5,937.5 Z"/></g>
<g><path style="opacity:0.979" fill="#4d4d4d" d="M 857.5,1055.5 C 866.833,1055.5 876.167,1055.5 885.5,1055.5C 885.333,1076.5 885.5,1097.5 886,1118.5C 899.152,1098.83 916.652,1093.67 938.5,1103C 944.772,1108.04 948.606,1114.54 950,1122.5C 950.5,1149.83 950.667,1177.16 950.5,1204.5C 940.833,1204.5 931.167,1204.5 921.5,1204.5C 921.667,1179.83 921.5,1155.16 921,1130.5C 918.941,1122.12 913.774,1119.29 905.5,1122C 897.108,1125.73 890.608,1131.56 886,1139.5C 885.5,1161.16 885.333,1182.83 885.5,1204.5C 876.167,1204.5 866.833,1204.5 857.5,1204.5C 857.5,1154.83 857.5,1105.17 857.5,1055.5 Z"/></g>
<g><path style="opacity:0.964" fill="#4c4c4c" d="M 471.5,1061.5 C 491.413,1060.49 511.08,1062.15 530.5,1066.5C 530.831,1074.53 530.498,1082.53 529.5,1090.5C 510.46,1082.09 490.793,1079.92 470.5,1084C 457.442,1089.39 448.942,1098.89 445,1112.5C 439.414,1132.8 441.747,1152.14 452,1170.5C 465.044,1184.98 481.211,1190.31 500.5,1186.5C 500.5,1171.17 500.5,1155.83 500.5,1140.5C 510.5,1140.5 520.5,1140.5 530.5,1140.5C 530.5,1160.83 530.5,1181.17 530.5,1201.5C 505.672,1208.32 480.672,1209.15 455.5,1204C 428.626,1194.79 413.792,1175.96 411,1147.5C 408.3,1127.39 411.633,1108.39 421,1090.5C 433.411,1073.21 450.244,1063.54 471.5,1061.5 Z"/></g>
<g><path style="opacity:0.974" fill="#4d4d4d" d="M 615.5,1098.5 C 628.784,1096.1 639.951,1099.76 649,1109.5C 650.528,1112.42 651.861,1115.42 653,1118.5C 666.165,1098.83 683.665,1093.67 705.5,1103C 710.772,1107.28 713.939,1112.78 715,1119.5C 715.5,1147.83 715.667,1176.16 715.5,1204.5C 706.5,1204.5 697.5,1204.5 688.5,1204.5C 688.667,1181.16 688.5,1157.83 688,1134.5C 685.123,1120.93 677.623,1117.76 665.5,1125C 660.538,1128.75 656.371,1133.25 653,1138.5C 652.5,1160.5 652.333,1182.5 652.5,1204.5C 643.5,1204.5 634.5,1204.5 625.5,1204.5C 625.667,1181.83 625.5,1159.16 625,1136.5C 624.459,1123.28 617.959,1118.78 605.5,1123C 599,1126.83 593.833,1132 590,1138.5C 589.5,1160.5 589.333,1182.5 589.5,1204.5C 580.5,1204.5 571.5,1204.5 562.5,1204.5C 562.5,1169.83 562.5,1135.17 562.5,1100.5C 571.5,1100.5 580.5,1100.5 589.5,1100.5C 589.334,1106.18 589.501,1111.84 590,1117.5C 596.146,1107.83 604.646,1101.5 615.5,1098.5 Z"/></g>
<g><path style="opacity:0.958" fill="#4c4c4c" d="M 777.5,1098.5 C 791.619,1098 805.619,1099 819.5,1101.5C 819.83,1108.53 819.497,1115.53 818.5,1122.5C 807.915,1118.07 796.915,1116.24 785.5,1117C 776.647,1117.82 773.481,1122.32 776,1130.5C 777.5,1132 779,1133.5 780.5,1135C 791.332,1139.28 801.999,1143.94 812.5,1149C 828.263,1159.55 831.763,1173.38 823,1190.5C 815.593,1199.45 806.093,1204.62 794.5,1206C 777.874,1207.52 761.541,1206.02 745.5,1201.5C 745.334,1194.16 745.5,1186.83 746,1179.5C 760.406,1186.9 775.573,1189.4 791.5,1187C 797.169,1184.18 799.002,1179.68 797,1173.5C 795.5,1172 794,1170.5 792.5,1169C 780.417,1164.09 768.751,1158.42 757.5,1152C 745.379,1140.61 743.212,1127.44 751,1112.5C 758.302,1104.77 767.136,1100.1 777.5,1098.5 Z"/></g>
</svg>
